<mxfile host="app.diagrams.net" modified="2024-01-22T12:51:42.058Z" agent="Mozilla/5.0 (Windows NT 10.0; Win64; x64) AppleWebKit/537.36 (KHTML, like Gecko) Chrome/120.0.0.0 Safari/537.36" etag="5msh4TUY3MVY0yNnj5Fg" version="22.1.21" type="github" pages="2">
  <diagram id="6G3r_QqAA1fNAYQaFEHI" name="Compra online">
    <mxGraphModel dx="3343" dy="549" grid="1" gridSize="10" guides="1" tooltips="1" connect="1" arrows="1" fold="1" page="1" pageScale="1" pageWidth="2336" pageHeight="1654" math="0" shadow="0">
      <root>
        <mxCell id="0" />
        <mxCell id="1" parent="0" />
        <mxCell id="gWhWabP_F0V6RctqcrPL-3" value="" style="group" parent="1" vertex="1" connectable="0">
          <mxGeometry x="-2228" y="80" width="2120" height="980" as="geometry" />
        </mxCell>
        <mxCell id="gWhWabP_F0V6RctqcrPL-1" value="" style="group" parent="gWhWabP_F0V6RctqcrPL-3" vertex="1" connectable="0">
          <mxGeometry width="2120" height="980" as="geometry" />
        </mxCell>
        <mxCell id="nW9fMLdY71jYZeTw1rtJ-126" value="Consumidores pesquisando um produto on-line" style="rounded=0;whiteSpace=wrap;html=1;labelBackgroundColor=none;strokeWidth=1;fillColor=#d5e8d4;fontSize=30;strokeColor=#808080;" parent="gWhWabP_F0V6RctqcrPL-1" vertex="1">
          <mxGeometry width="2120" height="60" as="geometry" />
        </mxCell>
        <mxCell id="nW9fMLdY71jYZeTw1rtJ-128" value="" style="rounded=0;whiteSpace=wrap;html=1;labelBackgroundColor=none;strokeWidth=1;fontSize=30;fillColor=none;strokeColor=#808080;" parent="gWhWabP_F0V6RctqcrPL-1" vertex="1">
          <mxGeometry y="60" width="2120" height="260" as="geometry" />
        </mxCell>
        <mxCell id="nW9fMLdY71jYZeTw1rtJ-129" value="" style="rounded=0;whiteSpace=wrap;html=1;labelBackgroundColor=none;strokeWidth=1;fontSize=30;fillColor=none;strokeColor=#808080;" parent="gWhWabP_F0V6RctqcrPL-1" vertex="1">
          <mxGeometry y="320" width="2120" height="240" as="geometry" />
        </mxCell>
        <mxCell id="nW9fMLdY71jYZeTw1rtJ-130" value="" style="rounded=0;whiteSpace=wrap;html=1;labelBackgroundColor=none;strokeWidth=1;fontSize=30;fillColor=none;strokeColor=#808080;" parent="gWhWabP_F0V6RctqcrPL-1" vertex="1">
          <mxGeometry y="560" width="2120" height="420" as="geometry" />
        </mxCell>
        <mxCell id="nW9fMLdY71jYZeTw1rtJ-82" value="&lt;b&gt;&lt;font style=&quot;font-size: 20px&quot;&gt;Tarefas&lt;/font&gt;&lt;/b&gt;" style="text;html=1;strokeColor=none;fillColor=none;align=center;verticalAlign=middle;whiteSpace=wrap;rounded=0;" parent="gWhWabP_F0V6RctqcrPL-3" vertex="1">
          <mxGeometry x="20" y="360" width="40" height="20" as="geometry" />
        </mxCell>
        <mxCell id="nW9fMLdY71jYZeTw1rtJ-83" value="&lt;b&gt;&lt;font style=&quot;font-size: 20px&quot;&gt;Sub-tarefas&lt;/font&gt;&lt;/b&gt;" style="text;html=1;strokeColor=none;fillColor=none;align=center;verticalAlign=middle;whiteSpace=wrap;rounded=0;" parent="gWhWabP_F0V6RctqcrPL-3" vertex="1">
          <mxGeometry y="630" width="130" height="20" as="geometry" />
        </mxCell>
        <mxCell id="nW9fMLdY71jYZeTw1rtJ-51" style="rounded=0;orthogonalLoop=1;jettySize=auto;html=1;dashed=1;dashPattern=1 4;edgeStyle=orthogonalEdgeStyle;" parent="1" source="nW9fMLdY71jYZeTw1rtJ-47" target="nW9fMLdY71jYZeTw1rtJ-45" edge="1">
          <mxGeometry relative="1" as="geometry">
            <Array as="points">
              <mxPoint x="-1488" y="410" />
              <mxPoint x="-1418" y="410" />
              <mxPoint x="-1418" y="760" />
            </Array>
          </mxGeometry>
        </mxCell>
        <mxCell id="nW9fMLdY71jYZeTw1rtJ-52" style="edgeStyle=orthogonalEdgeStyle;rounded=0;orthogonalLoop=1;jettySize=auto;html=1;dashed=1;dashPattern=1 4;" parent="1" source="nW9fMLdY71jYZeTw1rtJ-47" target="nW9fMLdY71jYZeTw1rtJ-36" edge="1">
          <mxGeometry relative="1" as="geometry">
            <Array as="points">
              <mxPoint x="-1488" y="410" />
              <mxPoint x="-1418" y="410" />
              <mxPoint x="-1418" y="650" />
              <mxPoint x="-1248" y="650" />
              <mxPoint x="-1248" y="900" />
            </Array>
          </mxGeometry>
        </mxCell>
        <mxCell id="nW9fMLdY71jYZeTw1rtJ-54" style="edgeStyle=orthogonalEdgeStyle;rounded=0;orthogonalLoop=1;jettySize=auto;html=1;dashed=1;dashPattern=1 4;" parent="1" source="nW9fMLdY71jYZeTw1rtJ-47" target="nW9fMLdY71jYZeTw1rtJ-53" edge="1">
          <mxGeometry relative="1" as="geometry">
            <Array as="points">
              <mxPoint x="-1488" y="180" />
              <mxPoint x="-1168" y="180" />
            </Array>
          </mxGeometry>
        </mxCell>
        <mxCell id="nW9fMLdY71jYZeTw1rtJ-65" style="edgeStyle=orthogonalEdgeStyle;rounded=0;orthogonalLoop=1;jettySize=auto;html=1;dashed=1;dashPattern=1 4;" parent="1" source="nW9fMLdY71jYZeTw1rtJ-47" target="nW9fMLdY71jYZeTw1rtJ-37" edge="1">
          <mxGeometry relative="1" as="geometry">
            <Array as="points">
              <mxPoint x="-1488" y="180" />
              <mxPoint x="-768" y="180" />
            </Array>
          </mxGeometry>
        </mxCell>
        <mxCell id="nW9fMLdY71jYZeTw1rtJ-66" style="edgeStyle=orthogonalEdgeStyle;rounded=0;orthogonalLoop=1;jettySize=auto;html=1;dashed=1;dashPattern=1 4;" parent="1" source="nW9fMLdY71jYZeTw1rtJ-47" target="nW9fMLdY71jYZeTw1rtJ-41" edge="1">
          <mxGeometry relative="1" as="geometry">
            <Array as="points">
              <mxPoint x="-1488" y="180" />
              <mxPoint x="-368" y="180" />
            </Array>
          </mxGeometry>
        </mxCell>
        <mxCell id="nW9fMLdY71jYZeTw1rtJ-67" style="edgeStyle=orthogonalEdgeStyle;rounded=0;orthogonalLoop=1;jettySize=auto;html=1;dashed=1;dashPattern=1 4;" parent="1" source="nW9fMLdY71jYZeTw1rtJ-47" target="nW9fMLdY71jYZeTw1rtJ-60" edge="1">
          <mxGeometry relative="1" as="geometry">
            <Array as="points">
              <mxPoint x="-1488" y="180" />
              <mxPoint x="-208" y="180" />
            </Array>
          </mxGeometry>
        </mxCell>
        <mxCell id="nW9fMLdY71jYZeTw1rtJ-21" value="Procurar um produto" style="rounded=1;whiteSpace=wrap;html=1;fillColor=#dae8fc;strokeColor=#6c8ebf;" parent="1" vertex="1">
          <mxGeometry x="-1708" y="220" width="120" height="60" as="geometry" />
        </mxCell>
        <mxCell id="nW9fMLdY71jYZeTw1rtJ-22" value="preview de imagem de produto" style="rounded=1;whiteSpace=wrap;html=1;fillColor=#fff2cc;strokeColor=#d6b656;fontStyle=2" parent="1" vertex="1">
          <mxGeometry x="-1868" y="490" width="120" height="60" as="geometry" />
        </mxCell>
        <mxCell id="nW9fMLdY71jYZeTw1rtJ-23" value="Ler especificação de produto" style="rounded=1;whiteSpace=wrap;html=1;fillColor=#d5e8d4;strokeColor=#82b366;" parent="1" vertex="1">
          <mxGeometry x="-1868" y="420" width="120" height="60" as="geometry" />
        </mxCell>
        <mxCell id="nW9fMLdY71jYZeTw1rtJ-24" value="visualizar um produto" style="rounded=1;whiteSpace=wrap;html=1;fillColor=#dae8fc;strokeColor=#6c8ebf;" parent="1" vertex="1">
          <mxGeometry x="-1868" y="220" width="120" height="60" as="geometry" />
        </mxCell>
        <mxCell id="nW9fMLdY71jYZeTw1rtJ-26" value="mostrar lista de produtos classificada" style="rounded=1;whiteSpace=wrap;html=1;fillColor=#d5e8d4;strokeColor=#82b366;" parent="1" vertex="1">
          <mxGeometry x="-1708" y="420" width="120" height="60" as="geometry" />
        </mxCell>
        <mxCell id="nW9fMLdY71jYZeTw1rtJ-28" value="ler reviews" style="rounded=1;whiteSpace=wrap;html=1;fillColor=#f8cecc;strokeColor=#b85450;fontStyle=2" parent="1" vertex="1">
          <mxGeometry x="-1878" y="660" width="120" height="60" as="geometry" />
        </mxCell>
        <mxCell id="nW9fMLdY71jYZeTw1rtJ-70" style="edgeStyle=orthogonalEdgeStyle;rounded=0;orthogonalLoop=1;jettySize=auto;html=1;dashed=1;dashPattern=1 4;" parent="1" source="nW9fMLdY71jYZeTw1rtJ-29" target="nW9fMLdY71jYZeTw1rtJ-53" edge="1">
          <mxGeometry relative="1" as="geometry">
            <Array as="points">
              <mxPoint x="-1248" y="230" />
              <mxPoint x="-1248" y="230" />
            </Array>
          </mxGeometry>
        </mxCell>
        <mxCell id="nW9fMLdY71jYZeTw1rtJ-29" value="adicionar um produto ao carinho" style="rounded=1;whiteSpace=wrap;html=1;fillColor=#dae8fc;strokeColor=#6c8ebf;" parent="1" vertex="1">
          <mxGeometry x="-1388" y="220" width="120" height="60" as="geometry" />
        </mxCell>
        <mxCell id="nW9fMLdY71jYZeTw1rtJ-30" value="alterar quantidade do produto" style="rounded=1;whiteSpace=wrap;html=1;fillColor=#d5e8d4;strokeColor=#82b366;" parent="1" vertex="1">
          <mxGeometry x="-1388" y="490" width="120" height="60" as="geometry" />
        </mxCell>
        <mxCell id="nW9fMLdY71jYZeTw1rtJ-31" value="Apagar um produto do carinho" style="rounded=1;whiteSpace=wrap;html=1;fillColor=#dae8fc;strokeColor=#6c8ebf;" parent="1" vertex="1">
          <mxGeometry x="-1388" y="280" width="120" height="60" as="geometry" />
        </mxCell>
        <mxCell id="nW9fMLdY71jYZeTw1rtJ-32" value="adicionar nota para entrega" style="rounded=1;whiteSpace=wrap;html=1;fillColor=#f8cecc;strokeColor=#b85450;fontStyle=2" parent="1" vertex="1">
          <mxGeometry x="-1398" y="660" width="120" height="60" as="geometry" />
        </mxCell>
        <mxCell id="nW9fMLdY71jYZeTw1rtJ-34" value="mostrar taxas de transporte" style="rounded=1;whiteSpace=wrap;html=1;fillColor=#d5e8d4;strokeColor=#82b366;" parent="1" vertex="1">
          <mxGeometry x="-1108" y="420" width="120" height="60" as="geometry" />
        </mxCell>
        <mxCell id="nW9fMLdY71jYZeTw1rtJ-35" value="verificar cep de entrega" style="rounded=1;whiteSpace=wrap;html=1;fillColor=#d5e8d4;strokeColor=#82b366;" parent="1" vertex="1">
          <mxGeometry x="-1228" y="420" width="120" height="60" as="geometry" />
        </mxCell>
        <mxCell id="nW9fMLdY71jYZeTw1rtJ-36" value="salvar notas para futuros pedidos" style="rounded=1;whiteSpace=wrap;html=1;fillColor=#f8cecc;strokeColor=#b85450;fontStyle=2" parent="1" vertex="1">
          <mxGeometry x="-1238" y="870" width="120" height="60" as="geometry" />
        </mxCell>
        <mxCell id="nW9fMLdY71jYZeTw1rtJ-72" style="edgeStyle=orthogonalEdgeStyle;rounded=0;orthogonalLoop=1;jettySize=auto;html=1;dashed=1;dashPattern=1 4;" parent="1" source="nW9fMLdY71jYZeTw1rtJ-37" target="nW9fMLdY71jYZeTw1rtJ-41" edge="1">
          <mxGeometry relative="1" as="geometry">
            <Array as="points">
              <mxPoint x="-568" y="230" />
              <mxPoint x="-568" y="230" />
            </Array>
          </mxGeometry>
        </mxCell>
        <mxCell id="nW9fMLdY71jYZeTw1rtJ-37" value="Pagar o pedido de compra" style="rounded=1;whiteSpace=wrap;html=1;fillColor=#dae8fc;strokeColor=#6c8ebf;" parent="1" vertex="1">
          <mxGeometry x="-828" y="220" width="120" height="60" as="geometry" />
        </mxCell>
        <mxCell id="nW9fMLdY71jYZeTw1rtJ-38" value="selecionar método de pagamento" style="rounded=1;whiteSpace=wrap;html=1;fillColor=#d5e8d4;strokeColor=#82b366;" parent="1" vertex="1">
          <mxGeometry x="-828" y="420" width="120" height="60" as="geometry" />
        </mxCell>
        <mxCell id="nW9fMLdY71jYZeTw1rtJ-39" value="entra com detalhes do pagamento" style="rounded=1;whiteSpace=wrap;html=1;fillColor=#d5e8d4;strokeColor=#82b366;" parent="1" vertex="1">
          <mxGeometry x="-708" y="420" width="120" height="60" as="geometry" />
        </mxCell>
        <mxCell id="nW9fMLdY71jYZeTw1rtJ-40" value="enviar confirmação de pagamento" style="rounded=1;whiteSpace=wrap;html=1;fillColor=#d5e8d4;strokeColor=#82b366;" parent="1" vertex="1">
          <mxGeometry x="-588" y="420" width="120" height="60" as="geometry" />
        </mxCell>
        <mxCell id="nW9fMLdY71jYZeTw1rtJ-41" value="Rastrear a compra" style="rounded=1;whiteSpace=wrap;html=1;fillColor=#f8cecc;strokeColor=#b85450;fontStyle=2" parent="1" vertex="1">
          <mxGeometry x="-428" y="220" width="120" height="60" as="geometry" />
        </mxCell>
        <mxCell id="nW9fMLdY71jYZeTw1rtJ-42" value="usar o número do pedido para rastrear a compra" style="rounded=1;whiteSpace=wrap;html=1;fillColor=#f8cecc;strokeColor=#b85450;fontStyle=2" parent="1" vertex="1">
          <mxGeometry x="-428" y="420" width="120" height="60" as="geometry" />
        </mxCell>
        <mxCell id="nW9fMLdY71jYZeTw1rtJ-43" value="selecionar janela de entrega" style="rounded=1;whiteSpace=wrap;html=1;fillColor=#f8cecc;strokeColor=#b85450;fontStyle=2" parent="1" vertex="1">
          <mxGeometry x="-1118" y="660" width="120" height="60" as="geometry" />
        </mxCell>
        <mxCell id="nW9fMLdY71jYZeTw1rtJ-44" value="salvar detalhes e notas no perfil do usuário" style="rounded=1;whiteSpace=wrap;html=1;fillColor=#f8cecc;strokeColor=#b85450;fontStyle=2" parent="1" vertex="1">
          <mxGeometry x="-838" y="660" width="120" height="60" as="geometry" />
        </mxCell>
        <mxCell id="nW9fMLdY71jYZeTw1rtJ-45" value="salvar pedido para uso posterior" style="rounded=1;whiteSpace=wrap;html=1;fillColor=#f8cecc;strokeColor=#b85450;fontStyle=2" parent="1" vertex="1">
          <mxGeometry x="-1398" y="730" width="120" height="60" as="geometry" />
        </mxCell>
        <UserObject label="Criar uma conta" link="data:page/id,iSt6Qmezgcpyq-W9V-Go" id="nW9fMLdY71jYZeTw1rtJ-47">
          <mxCell style="rounded=1;whiteSpace=wrap;html=1;fillColor=#dae8fc;strokeColor=#6c8ebf;" parent="1" vertex="1">
            <mxGeometry x="-1548" y="220" width="120" height="60" as="geometry" />
          </mxCell>
        </UserObject>
        <UserObject label="adicionar endereço de entrega" link="data:page/id,iSt6Qmezgcpyq-W9V-Go" id="nW9fMLdY71jYZeTw1rtJ-48">
          <mxCell style="rounded=1;whiteSpace=wrap;html=1;fillColor=#d5e8d4;strokeColor=#82b366;" parent="1" vertex="1">
            <mxGeometry x="-1548" y="420" width="120" height="60" as="geometry" />
          </mxCell>
        </UserObject>
        <UserObject label="alterar endereço" link="data:page/id,iSt6Qmezgcpyq-W9V-Go" id="nW9fMLdY71jYZeTw1rtJ-49">
          <mxCell style="rounded=1;whiteSpace=wrap;html=1;fillColor=#f8cecc;strokeColor=#b85450;fontStyle=2" parent="1" vertex="1">
            <mxGeometry x="-1558" y="660" width="120" height="60" as="geometry" />
          </mxCell>
        </UserObject>
        <mxCell id="nW9fMLdY71jYZeTw1rtJ-71" style="edgeStyle=orthogonalEdgeStyle;rounded=0;orthogonalLoop=1;jettySize=auto;html=1;dashed=1;dashPattern=1 4;" parent="1" source="nW9fMLdY71jYZeTw1rtJ-53" target="nW9fMLdY71jYZeTw1rtJ-37" edge="1">
          <mxGeometry relative="1" as="geometry">
            <Array as="points">
              <mxPoint x="-978" y="230" />
              <mxPoint x="-978" y="230" />
            </Array>
          </mxGeometry>
        </mxCell>
        <mxCell id="nW9fMLdY71jYZeTw1rtJ-53" value="Efetuar a pedido de compra" style="rounded=1;whiteSpace=wrap;html=1;fillColor=#dae8fc;strokeColor=#6c8ebf;" parent="1" vertex="1">
          <mxGeometry x="-1228" y="220" width="120" height="60" as="geometry" />
        </mxCell>
        <mxCell id="nW9fMLdY71jYZeTw1rtJ-55" value="revisar itens do pedido" style="rounded=1;whiteSpace=wrap;html=1;fillColor=#d5e8d4;strokeColor=#82b366;" parent="1" vertex="1">
          <mxGeometry x="-1228" y="490" width="120" height="60" as="geometry" />
        </mxCell>
        <mxCell id="nW9fMLdY71jYZeTw1rtJ-56" value="adicionar nota para embalagem" style="rounded=1;whiteSpace=wrap;html=1;fillColor=#f8cecc;strokeColor=#b85450;fontStyle=2" parent="1" vertex="1">
          <mxGeometry x="-1238" y="800" width="120" height="60" as="geometry" />
        </mxCell>
        <mxCell id="nW9fMLdY71jYZeTw1rtJ-57" value="adicionar uma nota para o serviço de entrega" style="rounded=1;whiteSpace=wrap;html=1;fillColor=#f8cecc;strokeColor=#b85450;fontStyle=2" parent="1" vertex="1">
          <mxGeometry x="-1238" y="730" width="120" height="60" as="geometry" />
        </mxCell>
        <mxCell id="nW9fMLdY71jYZeTw1rtJ-58" value="consentimento de pagaemento" style="rounded=1;whiteSpace=wrap;html=1;fillColor=#d5e8d4;strokeColor=#82b366;" parent="1" vertex="1">
          <mxGeometry x="-988" y="420" width="120" height="60" as="geometry" />
        </mxCell>
        <mxCell id="nW9fMLdY71jYZeTw1rtJ-59" value="revisar itens comprados ou método de pagamento" style="rounded=1;whiteSpace=wrap;html=1;fillColor=#f8cecc;strokeColor=#b85450;fontStyle=2" parent="1" vertex="1">
          <mxGeometry x="-428" y="490" width="120" height="60" as="geometry" />
        </mxCell>
        <mxCell id="nW9fMLdY71jYZeTw1rtJ-60" value="Solicitar produtos favoritos facilitado" style="rounded=1;whiteSpace=wrap;html=1;fillColor=#f8cecc;strokeColor=#b85450;fontStyle=2" parent="1" vertex="1">
          <mxGeometry x="-268" y="220" width="120" height="60" as="geometry" />
        </mxCell>
        <mxCell id="nW9fMLdY71jYZeTw1rtJ-61" value="marcar produto como favorito" style="rounded=1;whiteSpace=wrap;html=1;fillColor=#f8cecc;strokeColor=#b85450;fontStyle=2" parent="1" vertex="1">
          <mxGeometry x="-268" y="420" width="120" height="60" as="geometry" />
        </mxCell>
        <mxCell id="nW9fMLdY71jYZeTw1rtJ-62" value="renovar pedidos conforme histórico de compras" style="rounded=1;whiteSpace=wrap;html=1;fillColor=#f8cecc;strokeColor=#b85450;fontStyle=2" parent="1" vertex="1">
          <mxGeometry x="-268" y="490" width="120" height="60" as="geometry" />
        </mxCell>
        <mxCell id="nW9fMLdY71jYZeTw1rtJ-63" value="realizar lista personalizada de produtos" style="rounded=1;whiteSpace=wrap;html=1;fillColor=#f8cecc;strokeColor=#b85450;fontStyle=2" parent="1" vertex="1">
          <mxGeometry x="-278" y="660" width="120" height="60" as="geometry" />
        </mxCell>
        <mxCell id="nW9fMLdY71jYZeTw1rtJ-64" value="capturar compras recorrentes" style="rounded=1;whiteSpace=wrap;html=1;fillColor=#f8cecc;strokeColor=#b85450;fontStyle=2" parent="1" vertex="1">
          <mxGeometry x="-278" y="730" width="120" height="60" as="geometry" />
        </mxCell>
        <mxCell id="nW9fMLdY71jYZeTw1rtJ-68" value="escrever reviews" style="rounded=1;whiteSpace=wrap;html=1;fillColor=#f8cecc;strokeColor=#b85450;fontStyle=2" parent="1" vertex="1">
          <mxGeometry x="-1878" y="730" width="120" height="60" as="geometry" />
        </mxCell>
        <mxCell id="nW9fMLdY71jYZeTw1rtJ-69" value="mostrar categoria de produto" style="rounded=1;whiteSpace=wrap;html=1;fillColor=#d5e8d4;strokeColor=#82b366;" parent="1" vertex="1">
          <mxGeometry x="-2028" y="490" width="120" height="60" as="geometry" />
        </mxCell>
        <mxCell id="nW9fMLdY71jYZeTw1rtJ-73" value="selecionar método de entrega" style="rounded=1;whiteSpace=wrap;html=1;fillColor=#f8cecc;strokeColor=#b85450;fontStyle=2" parent="1" vertex="1">
          <mxGeometry x="-1238" y="660" width="120" height="60" as="geometry" />
        </mxCell>
        <mxCell id="nW9fMLdY71jYZeTw1rtJ-74" value="apagar endereço de entrega" style="rounded=1;whiteSpace=wrap;html=1;fillColor=#d5e8d4;strokeColor=#82b366;" parent="1" vertex="1">
          <mxGeometry x="-1548" y="480" width="120" height="60" as="geometry" />
        </mxCell>
        <mxCell id="nW9fMLdY71jYZeTw1rtJ-75" value="revisar cartão de crédito" style="rounded=1;whiteSpace=wrap;html=1;fillColor=#d5e8d4;strokeColor=#82b366;" parent="1" vertex="1">
          <mxGeometry x="-1388" y="420" width="120" height="60" as="geometry" />
        </mxCell>
        <mxCell id="nW9fMLdY71jYZeTw1rtJ-76" value="Visualizar todos os produtos" style="rounded=1;whiteSpace=wrap;html=1;fillColor=#dae8fc;strokeColor=#6c8ebf;" parent="1" vertex="1">
          <mxGeometry x="-2028" y="220" width="120" height="60" as="geometry" />
        </mxCell>
        <mxCell id="nW9fMLdY71jYZeTw1rtJ-77" value="Mostrar preço de todos os produtos" style="rounded=1;whiteSpace=wrap;html=1;fillColor=#d5e8d4;strokeColor=#82b366;" parent="1" vertex="1">
          <mxGeometry x="-2028" y="420" width="120" height="60" as="geometry" />
        </mxCell>
        <mxCell id="nW9fMLdY71jYZeTw1rtJ-80" value="verificar recomendações" style="rounded=1;whiteSpace=wrap;html=1;fillColor=#f8cecc;strokeColor=#b85450;fontStyle=2" parent="1" vertex="1">
          <mxGeometry x="-1878" y="860" width="120" height="60" as="geometry" />
        </mxCell>
        <mxCell id="nW9fMLdY71jYZeTw1rtJ-84" value="vermelho = fora de escopo na versão atual" style="rounded=1;whiteSpace=wrap;html=1;fillColor=#f8cecc;strokeColor=#b85450;fontStyle=0" parent="1" vertex="1">
          <mxGeometry x="-2188" y="1110" width="120" height="60" as="geometry" />
        </mxCell>
        <mxCell id="nW9fMLdY71jYZeTw1rtJ-90" value="" style="verticalLabelPosition=bottom;verticalAlign=top;html=1;shape=mxgraph.basic.tick;strokeWidth=3;fontColor=#ffffff;fillColor=#006633;strokeColor=#006633;" parent="1" vertex="1">
          <mxGeometry x="-2050.5" y="260" width="20" height="20" as="geometry" />
        </mxCell>
        <mxCell id="nW9fMLdY71jYZeTw1rtJ-94" value="amarelo = serviço de terceiros" style="rounded=1;whiteSpace=wrap;html=1;strokeWidth=1;fillColor=#fff2cc;strokeColor=#d6b656;" parent="1" vertex="1">
          <mxGeometry x="-2058" y="1110" width="120" height="60" as="geometry" />
        </mxCell>
        <mxCell id="nW9fMLdY71jYZeTw1rtJ-97" value="Funcionalidade completa" style="verticalLabelPosition=bottom;verticalAlign=top;html=1;shape=mxgraph.basic.tick;strokeWidth=3;fillColor=#006633;strokeColor=#006633;fontColor=#006633;" parent="1" vertex="1">
          <mxGeometry x="-1620" y="1120" width="20" height="20" as="geometry" />
        </mxCell>
        <mxCell id="nW9fMLdY71jYZeTw1rtJ-98" value="" style="verticalLabelPosition=bottom;verticalAlign=top;html=1;shape=mxgraph.basic.tick;strokeWidth=3;fontColor=#ffffff;fillColor=#006633;strokeColor=#006633;" parent="1" vertex="1">
          <mxGeometry x="-2048" y="459" width="20" height="20" as="geometry" />
        </mxCell>
        <mxCell id="nW9fMLdY71jYZeTw1rtJ-99" value="" style="verticalLabelPosition=bottom;verticalAlign=top;html=1;shape=mxgraph.basic.tick;strokeWidth=3;fontColor=#ffffff;fillColor=#006633;strokeColor=#006633;" parent="1" vertex="1">
          <mxGeometry x="-1888" y="260" width="20" height="20" as="geometry" />
        </mxCell>
        <mxCell id="nW9fMLdY71jYZeTw1rtJ-104" value="1" style="ellipse;whiteSpace=wrap;html=1;aspect=fixed;fontFamily=Helvetica;fontSize=18;align=center;strokeWidth=1;fillColor=#f5f5f5;strokeColor=#666666;fontColor=#333333;" parent="1" vertex="1">
          <mxGeometry x="-2053" y="235" width="25" height="25" as="geometry" />
        </mxCell>
        <mxCell id="nW9fMLdY71jYZeTw1rtJ-105" value="1" style="ellipse;whiteSpace=wrap;html=1;aspect=fixed;fontFamily=Helvetica;fontSize=18;align=center;strokeWidth=1;fillColor=#f5f5f5;strokeColor=#666666;fontColor=#333333;" parent="1" vertex="1">
          <mxGeometry x="-2053" y="435" width="25" height="25" as="geometry" />
        </mxCell>
        <mxCell id="nW9fMLdY71jYZeTw1rtJ-106" value="1" style="ellipse;whiteSpace=wrap;html=1;aspect=fixed;fontFamily=Helvetica;fontSize=18;align=center;strokeWidth=1;fillColor=#f5f5f5;strokeColor=#666666;fontColor=#333333;" parent="1" vertex="1">
          <mxGeometry x="-1893" y="235" width="25" height="25" as="geometry" />
        </mxCell>
        <mxCell id="nW9fMLdY71jYZeTw1rtJ-107" value="1" style="ellipse;whiteSpace=wrap;html=1;aspect=fixed;fontFamily=Helvetica;fontSize=18;align=center;strokeWidth=1;fillColor=#f5f5f5;strokeColor=#666666;fontColor=#333333;" parent="1" vertex="1">
          <mxGeometry x="-1893" y="435" width="25" height="25" as="geometry" />
        </mxCell>
        <mxCell id="nW9fMLdY71jYZeTw1rtJ-108" value="2" style="ellipse;whiteSpace=wrap;html=1;aspect=fixed;fontFamily=Helvetica;fontSize=18;align=center;strokeWidth=1;fillColor=#f5f5f5;strokeColor=#666666;fontColor=#333333;" parent="1" vertex="1">
          <mxGeometry x="-1733" y="235" width="25" height="25" as="geometry" />
        </mxCell>
        <mxCell id="nW9fMLdY71jYZeTw1rtJ-109" value="2" style="ellipse;whiteSpace=wrap;html=1;aspect=fixed;fontFamily=Helvetica;fontSize=18;align=center;strokeWidth=1;fillColor=#f5f5f5;strokeColor=#666666;fontColor=#333333;" parent="1" vertex="1">
          <mxGeometry x="-2055.5" y="507.5" width="25" height="25" as="geometry" />
        </mxCell>
        <mxCell id="nW9fMLdY71jYZeTw1rtJ-110" value="2" style="ellipse;whiteSpace=wrap;html=1;aspect=fixed;fontFamily=Helvetica;fontSize=18;align=center;strokeWidth=1;fillColor=#f5f5f5;strokeColor=#666666;fontColor=#333333;" parent="1" vertex="1">
          <mxGeometry x="-1733" y="434" width="25" height="25" as="geometry" />
        </mxCell>
        <mxCell id="nW9fMLdY71jYZeTw1rtJ-111" value="3" style="ellipse;whiteSpace=wrap;html=1;aspect=fixed;fontFamily=Helvetica;fontSize=18;align=center;strokeWidth=1;fillColor=#f5f5f5;strokeColor=#666666;fontColor=#333333;" parent="1" vertex="1">
          <mxGeometry x="-1573" y="235" width="25" height="25" as="geometry" />
        </mxCell>
        <mxCell id="nW9fMLdY71jYZeTw1rtJ-112" value="3" style="ellipse;whiteSpace=wrap;html=1;aspect=fixed;fontFamily=Helvetica;fontSize=18;align=center;strokeWidth=1;fillColor=#f5f5f5;strokeColor=#666666;fontColor=#333333;" parent="1" vertex="1">
          <mxGeometry x="-1573" y="434" width="25" height="25" as="geometry" />
        </mxCell>
        <mxCell id="nW9fMLdY71jYZeTw1rtJ-113" value="3" style="ellipse;whiteSpace=wrap;html=1;aspect=fixed;fontFamily=Helvetica;fontSize=18;align=center;strokeWidth=1;fillColor=#f5f5f5;strokeColor=#666666;fontColor=#333333;" parent="1" vertex="1">
          <mxGeometry x="-1573" y="497.5" width="25" height="25" as="geometry" />
        </mxCell>
        <mxCell id="nW9fMLdY71jYZeTw1rtJ-114" value="4" style="ellipse;whiteSpace=wrap;html=1;aspect=fixed;fontFamily=Helvetica;fontSize=18;align=center;strokeWidth=1;fillColor=#f5f5f5;strokeColor=#666666;fontColor=#333333;" parent="1" vertex="1">
          <mxGeometry x="-1413" y="237.5" width="25" height="25" as="geometry" />
        </mxCell>
        <mxCell id="nW9fMLdY71jYZeTw1rtJ-115" value="4" style="ellipse;whiteSpace=wrap;html=1;aspect=fixed;fontFamily=Helvetica;fontSize=18;align=center;strokeWidth=1;fillColor=#f5f5f5;strokeColor=#666666;fontColor=#333333;" parent="1" vertex="1">
          <mxGeometry x="-1413" y="297.5" width="25" height="25" as="geometry" />
        </mxCell>
        <mxCell id="nW9fMLdY71jYZeTw1rtJ-116" value="4" style="ellipse;whiteSpace=wrap;html=1;aspect=fixed;fontFamily=Helvetica;fontSize=18;align=center;strokeWidth=1;fillColor=#f5f5f5;strokeColor=#666666;fontColor=#333333;" parent="1" vertex="1">
          <mxGeometry x="-1413" y="434" width="25" height="25" as="geometry" />
        </mxCell>
        <mxCell id="nW9fMLdY71jYZeTw1rtJ-120" value="5" style="ellipse;whiteSpace=wrap;html=1;aspect=fixed;fontFamily=Helvetica;fontSize=18;align=center;strokeWidth=1;fillColor=#f5f5f5;strokeColor=#666666;fontColor=#333333;" parent="1" vertex="1">
          <mxGeometry x="-1413" y="507.5" width="25" height="25" as="geometry" />
        </mxCell>
        <mxCell id="nW9fMLdY71jYZeTw1rtJ-124" value="" style="group" parent="1" vertex="1" connectable="0">
          <mxGeometry x="-1536.75" y="1115" width="120" height="50" as="geometry" />
        </mxCell>
        <mxCell id="nW9fMLdY71jYZeTw1rtJ-122" value="1" style="ellipse;whiteSpace=wrap;html=1;aspect=fixed;fontFamily=Helvetica;fontSize=18;fontColor=#333333;align=center;strokeColor=#666666;strokeWidth=1;fillColor=#f5f5f5;" parent="nW9fMLdY71jYZeTw1rtJ-124" vertex="1">
          <mxGeometry x="23.75" y="5" width="25" height="25" as="geometry" />
        </mxCell>
        <mxCell id="nW9fMLdY71jYZeTw1rtJ-123" value="Semana do Sprint" style="text;html=1;strokeColor=none;fillColor=none;align=center;verticalAlign=middle;whiteSpace=wrap;rounded=0;fontSize=12;" parent="nW9fMLdY71jYZeTw1rtJ-124" vertex="1">
          <mxGeometry y="30" width="120" height="20" as="geometry" />
        </mxCell>
        <mxCell id="nW9fMLdY71jYZeTw1rtJ-131" value="" style="endArrow=classic;html=1;fontSize=30;fontColor=#000000;dashed=1;dashPattern=1 4;" parent="1" edge="1">
          <mxGeometry width="50" height="50" relative="1" as="geometry">
            <mxPoint x="-1920" y="1190" as="sourcePoint" />
            <mxPoint x="-1690" y="1190" as="targetPoint" />
          </mxGeometry>
        </mxCell>
        <mxCell id="nW9fMLdY71jYZeTw1rtJ-132" value="&lt;span style=&quot;font-size: 12px;&quot;&gt;Dependência&lt;/span&gt;" style="edgeLabel;html=1;align=center;verticalAlign=middle;resizable=0;points=[];fontSize=30;fontColor=#000000;labelBackgroundColor=none;" parent="nW9fMLdY71jYZeTw1rtJ-131" vertex="1" connectable="0">
          <mxGeometry x="-0.2041" y="4" relative="1" as="geometry">
            <mxPoint x="17.14" y="4" as="offset" />
          </mxGeometry>
        </mxCell>
        <mxCell id="mJ4_hJBow98ez9A4RSFs-1" value="Exemplo de mapa de funcionalidades" style="text;html=1;strokeColor=none;fillColor=none;align=center;verticalAlign=middle;whiteSpace=wrap;rounded=0;fontSize=20;fontStyle=2" parent="1" vertex="1">
          <mxGeometry x="-1683" y="1250" width="1030" height="20" as="geometry" />
        </mxCell>
        <mxCell id="mJ4_hJBow98ez9A4RSFs-2" value="" style="group" parent="1" vertex="1" connectable="0">
          <mxGeometry x="-1920" y="1110" width="240" height="60" as="geometry" />
        </mxCell>
        <mxCell id="qUOdwgdxU_DM8I0__7e0-1" value="" style="rounded=1;whiteSpace=wrap;html=1;strokeColor=#82b366;strokeWidth=1;fillColor=#d5e8d4;" parent="mJ4_hJBow98ez9A4RSFs-2" vertex="1">
          <mxGeometry width="120" height="60" as="geometry" />
        </mxCell>
        <mxCell id="qUOdwgdxU_DM8I0__7e0-2" value="" style="rounded=1;whiteSpace=wrap;html=1;strokeColor=#82b366;strokeWidth=1;fillColor=#d5e8d4;" parent="mJ4_hJBow98ez9A4RSFs-2" vertex="1">
          <mxGeometry x="120" width="120" height="60" as="geometry" />
        </mxCell>
        <mxCell id="qUOdwgdxU_DM8I0__7e0-3" value="tarefas coladas = dependência" style="text;html=1;strokeColor=none;fillColor=none;align=center;verticalAlign=middle;whiteSpace=wrap;rounded=0;" parent="mJ4_hJBow98ez9A4RSFs-2" vertex="1">
          <mxGeometry y="20" width="240" height="20" as="geometry" />
        </mxCell>
      </root>
    </mxGraphModel>
  </diagram>
  <diagram id="iSt6Qmezgcpyq-W9V-Go" name="update-account">
    <mxGraphModel dx="1259" dy="686" grid="1" gridSize="10" guides="1" tooltips="1" connect="1" arrows="1" fold="1" page="1" pageScale="1" pageWidth="1654" pageHeight="1169" math="0" shadow="0">
      <root>
        <mxCell id="OtLjK1SxLUBlRe3WaIa--0" />
        <mxCell id="OtLjK1SxLUBlRe3WaIa--1" parent="OtLjK1SxLUBlRe3WaIa--0" />
        <mxCell id="OtLjK1SxLUBlRe3WaIa--2" value="&lt;font style=&quot;font-size: 16px&quot;&gt;Fucionalidades da conta do Consumidor&amp;nbsp;&lt;/font&gt;" style="shape=table;childLayout=tableLayout;rowLines=0;columnLines=0;startSize=40;html=1;whiteSpace=wrap;collapsible=0;recursiveResize=0;expand=0;pointerEvents=0;fontStyle=1;align=center;labelBackgroundColor=none;strokeWidth=1;fontSize=30;fillColor=#f5f5f5;strokeColor=#666666;fontColor=#333333;" parent="OtLjK1SxLUBlRe3WaIa--1" vertex="1">
          <mxGeometry x="27" y="30" width="1600" height="930" as="geometry" />
        </mxCell>
        <mxCell id="OtLjK1SxLUBlRe3WaIa--3" value="Atividades&lt;br&gt;" style="swimlane;horizontal=0;points=[[0,0.5],[1,0.5]];portConstraint=eastwest;startSize=40;html=1;whiteSpace=wrap;collapsible=0;recursiveResize=0;expand=0;pointerEvents=0;fontStyle=1;fillColor=#d5e8d4;strokeColor=#82b366;" parent="OtLjK1SxLUBlRe3WaIa--2" vertex="1">
          <mxGeometry y="40" width="1600" height="296" as="geometry" />
        </mxCell>
        <mxCell id="OtLjK1SxLUBlRe3WaIa--25" value="Log in" style="swimlane;connectable=0;startSize=40;html=1;whiteSpace=wrap;collapsible=0;recursiveResize=0;expand=0;pointerEvents=0;fillColor=#f5f5f5;strokeColor=#666666;fontColor=#333333;" parent="OtLjK1SxLUBlRe3WaIa--3" vertex="1">
          <mxGeometry x="40" width="170" height="296" as="geometry">
            <mxRectangle width="170" height="296" as="alternateBounds" />
          </mxGeometry>
        </mxCell>
        <mxCell id="OtLjK1SxLUBlRe3WaIa--28" value="Entrar com usuário e senha" style="rounded=1;whiteSpace=wrap;html=1;labelBackgroundColor=none;strokeWidth=1;fontSize=12;fillColor=#d5e8d4;strokeColor=#82b366;" parent="OtLjK1SxLUBlRe3WaIa--25" vertex="1">
          <mxGeometry x="20" y="60" width="120" height="60" as="geometry" />
        </mxCell>
        <mxCell id="OtLjK1SxLUBlRe3WaIa--4" value="Criar nova conta" style="swimlane;connectable=0;startSize=40;html=1;whiteSpace=wrap;collapsible=0;recursiveResize=0;expand=0;pointerEvents=0;fillColor=#f5f5f5;strokeColor=#666666;fontColor=#333333;" parent="OtLjK1SxLUBlRe3WaIa--3" vertex="1">
          <mxGeometry x="210" width="270" height="296" as="geometry">
            <mxRectangle width="270" height="296" as="alternateBounds" />
          </mxGeometry>
        </mxCell>
        <mxCell id="OtLjK1SxLUBlRe3WaIa--33" value="Entrar com novo usuário , e-mail, senha" style="rounded=1;whiteSpace=wrap;html=1;labelBackgroundColor=none;strokeWidth=1;fontSize=12;fillColor=#d5e8d4;strokeColor=#82b366;" parent="OtLjK1SxLUBlRe3WaIa--4" vertex="1">
          <mxGeometry x="14" y="60" width="120" height="60" as="geometry" />
        </mxCell>
        <mxCell id="OtLjK1SxLUBlRe3WaIa--6" value="alterar detalhes da conta" style="swimlane;connectable=0;startSize=40;html=1;whiteSpace=wrap;collapsible=0;recursiveResize=0;expand=0;pointerEvents=0;fillColor=#f5f5f5;strokeColor=#666666;fontColor=#333333;" parent="OtLjK1SxLUBlRe3WaIa--3" vertex="1">
          <mxGeometry x="480" width="280" height="296" as="geometry">
            <mxRectangle width="280" height="296" as="alternateBounds" />
          </mxGeometry>
        </mxCell>
        <mxCell id="OtLjK1SxLUBlRe3WaIa--34" value="adicionar no endereço de entrega" style="rounded=1;whiteSpace=wrap;html=1;strokeWidth=1;fillColor=#d5e8d4;strokeColor=#82b366;" parent="OtLjK1SxLUBlRe3WaIa--6" vertex="1">
          <mxGeometry x="18" y="60" width="120" height="60" as="geometry" />
        </mxCell>
        <mxCell id="OtLjK1SxLUBlRe3WaIa--35" value="adicionar novo telefone" style="rounded=1;whiteSpace=wrap;html=1;strokeWidth=1;fillColor=#d5e8d4;strokeColor=#82b366;" parent="OtLjK1SxLUBlRe3WaIa--6" vertex="1">
          <mxGeometry x="18" y="130" width="120" height="60" as="geometry" />
        </mxCell>
        <mxCell id="UWbwYJlnjAnOrRLH9oln-3" value="alterar e-mail&amp;nbsp;" style="rounded=1;whiteSpace=wrap;html=1;strokeWidth=1;fillColor=#d5e8d4;strokeColor=#82b366;" parent="OtLjK1SxLUBlRe3WaIa--6" vertex="1">
          <mxGeometry x="18" y="200" width="120" height="60" as="geometry" />
        </mxCell>
        <mxCell id="OtLjK1SxLUBlRe3WaIa--18" value="alterar detalhes de forma de pagamento" style="swimlane;connectable=0;startSize=40;html=1;whiteSpace=wrap;collapsible=0;recursiveResize=0;expand=0;pointerEvents=0;fillColor=#f5f5f5;strokeColor=#666666;fontColor=#333333;" parent="OtLjK1SxLUBlRe3WaIa--3" vertex="1">
          <mxGeometry x="760" width="270" height="296" as="geometry">
            <mxRectangle width="270" height="296" as="alternateBounds" />
          </mxGeometry>
        </mxCell>
        <mxCell id="OtLjK1SxLUBlRe3WaIa--36" value="novo método de pagamento" style="rounded=1;whiteSpace=wrap;html=1;strokeWidth=1;fillColor=#d5e8d4;strokeColor=#82b366;" parent="OtLjK1SxLUBlRe3WaIa--18" vertex="1">
          <mxGeometry x="12" y="60" width="120" height="60" as="geometry" />
        </mxCell>
        <mxCell id="OtLjK1SxLUBlRe3WaIa--21" value="revisão de ordens encerradas" style="swimlane;connectable=0;startSize=40;html=1;whiteSpace=wrap;collapsible=0;recursiveResize=0;expand=0;pointerEvents=0;fillColor=#f5f5f5;strokeColor=#666666;fontColor=#333333;" parent="OtLjK1SxLUBlRe3WaIa--3" vertex="1">
          <mxGeometry x="1030" width="150" height="296" as="geometry">
            <mxRectangle width="150" height="296" as="alternateBounds" />
          </mxGeometry>
        </mxCell>
        <mxCell id="UWbwYJlnjAnOrRLH9oln-14" value="visualizar todos os pedidos" style="rounded=1;whiteSpace=wrap;html=1;strokeWidth=1;fillColor=#d5e8d4;strokeColor=#82b366;" parent="OtLjK1SxLUBlRe3WaIa--21" vertex="1">
          <mxGeometry x="14" y="50" width="120" height="60" as="geometry" />
        </mxCell>
        <mxCell id="OtLjK1SxLUBlRe3WaIa--38" value="Delete account" style="swimlane;connectable=0;startSize=40;html=1;whiteSpace=wrap;collapsible=0;recursiveResize=0;expand=0;pointerEvents=0;fillColor=#f5f5f5;strokeColor=#666666;fontColor=#333333;" parent="OtLjK1SxLUBlRe3WaIa--3" vertex="1">
          <mxGeometry x="1180" width="150" height="296" as="geometry">
            <mxRectangle width="150" height="296" as="alternateBounds" />
          </mxGeometry>
        </mxCell>
        <mxCell id="UWbwYJlnjAnOrRLH9oln-17" value="confirmar apagar" style="rounded=1;whiteSpace=wrap;html=1;strokeWidth=1;fillColor=#d5e8d4;strokeColor=#82b366;" parent="OtLjK1SxLUBlRe3WaIa--38" vertex="1">
          <mxGeometry x="13" y="50" width="120" height="60" as="geometry" />
        </mxCell>
        <mxCell id="UWbwYJlnjAnOrRLH9oln-0" value="Ajuda" style="swimlane;connectable=0;startSize=40;html=1;whiteSpace=wrap;collapsible=0;recursiveResize=0;expand=0;pointerEvents=0;fillColor=#f5f5f5;strokeColor=#666666;fontColor=#333333;" parent="OtLjK1SxLUBlRe3WaIa--3" vertex="1">
          <mxGeometry x="1330" width="270" height="296" as="geometry">
            <mxRectangle width="270" height="296" as="alternateBounds" />
          </mxGeometry>
        </mxCell>
        <mxCell id="UWbwYJlnjAnOrRLH9oln-20" value="contactar o suporte&amp;nbsp;" style="rounded=1;whiteSpace=wrap;html=1;strokeWidth=1;fillColor=#d5e8d4;strokeColor=#82b366;" parent="UWbwYJlnjAnOrRLH9oln-0" vertex="1">
          <mxGeometry x="11" y="50" width="120" height="60" as="geometry" />
        </mxCell>
        <mxCell id="UWbwYJlnjAnOrRLH9oln-24" value="pesquisar um pedido" style="rounded=1;whiteSpace=wrap;html=1;strokeWidth=1;fillColor=#d5e8d4;strokeColor=#82b366;" parent="UWbwYJlnjAnOrRLH9oln-0" vertex="1">
          <mxGeometry x="131" y="50" width="120" height="60" as="geometry" />
        </mxCell>
        <mxCell id="UWbwYJlnjAnOrRLH9oln-28" value="encontrar informações por auto atendimento" style="rounded=1;whiteSpace=wrap;html=1;strokeWidth=1;fillColor=#d5e8d4;strokeColor=#82b366;" parent="UWbwYJlnjAnOrRLH9oln-0" vertex="1">
          <mxGeometry x="11" y="118" width="120" height="60" as="geometry" />
        </mxCell>
        <mxCell id="OtLjK1SxLUBlRe3WaIa--7" value="Tarefas" style="swimlane;horizontal=0;points=[[0,0.5],[1,0.5]];portConstraint=eastwest;startSize=40;html=1;whiteSpace=wrap;collapsible=0;recursiveResize=0;expand=0;pointerEvents=0;fillColor=#dae8fc;strokeColor=#6c8ebf;" parent="OtLjK1SxLUBlRe3WaIa--2" vertex="1">
          <mxGeometry y="336" width="1600" height="298" as="geometry" />
        </mxCell>
        <mxCell id="OtLjK1SxLUBlRe3WaIa--26" style="swimlane;connectable=0;startSize=0;html=1;whiteSpace=wrap;collapsible=0;recursiveResize=0;expand=0;pointerEvents=0;" parent="OtLjK1SxLUBlRe3WaIa--7" vertex="1">
          <mxGeometry x="40" width="170" height="298" as="geometry">
            <mxRectangle width="170" height="298" as="alternateBounds" />
          </mxGeometry>
        </mxCell>
        <mxCell id="OtLjK1SxLUBlRe3WaIa--31" value="retornar senha esquecida" style="rounded=1;whiteSpace=wrap;html=1;strokeWidth=1;fillColor=#dae8fc;strokeColor=#6c8ebf;" parent="OtLjK1SxLUBlRe3WaIa--26" vertex="1">
          <mxGeometry x="20" y="14" width="120" height="60" as="geometry" />
        </mxCell>
        <mxCell id="OtLjK1SxLUBlRe3WaIa--8" value="" style="swimlane;connectable=0;startSize=0;html=1;whiteSpace=wrap;collapsible=0;recursiveResize=0;expand=0;pointerEvents=0;" parent="OtLjK1SxLUBlRe3WaIa--7" vertex="1">
          <mxGeometry x="210" width="270" height="298" as="geometry">
            <mxRectangle width="270" height="298" as="alternateBounds" />
          </mxGeometry>
        </mxCell>
        <mxCell id="OtLjK1SxLUBlRe3WaIa--41" value="entra com e-mail único" style="rounded=1;whiteSpace=wrap;html=1;strokeWidth=1;fillColor=#dae8fc;strokeColor=#6c8ebf;" parent="OtLjK1SxLUBlRe3WaIa--8" vertex="1">
          <mxGeometry x="14" y="14" width="120" height="60" as="geometry" />
        </mxCell>
        <mxCell id="OtLjK1SxLUBlRe3WaIa--43" value="definir método de autenticação de dois fatores" style="rounded=1;whiteSpace=wrap;html=1;strokeWidth=1;fillColor=#dae8fc;strokeColor=#6c8ebf;" parent="OtLjK1SxLUBlRe3WaIa--8" vertex="1">
          <mxGeometry x="134" y="154" width="120" height="60" as="geometry" />
        </mxCell>
        <mxCell id="OtLjK1SxLUBlRe3WaIa--44" value="selecionar um método de recuperação" style="rounded=1;whiteSpace=wrap;html=1;strokeWidth=1;fillColor=#dae8fc;strokeColor=#6c8ebf;" parent="OtLjK1SxLUBlRe3WaIa--8" vertex="1">
          <mxGeometry x="16" y="154" width="120" height="60" as="geometry" />
        </mxCell>
        <mxCell id="UWbwYJlnjAnOrRLH9oln-11" value="entra com senha" style="rounded=1;whiteSpace=wrap;html=1;strokeWidth=1;fillColor=#dae8fc;strokeColor=#6c8ebf;" parent="OtLjK1SxLUBlRe3WaIa--8" vertex="1">
          <mxGeometry x="16" y="84" width="120" height="60" as="geometry" />
        </mxCell>
        <mxCell id="OtLjK1SxLUBlRe3WaIa--10" value="" style="swimlane;connectable=0;startSize=0;html=1;whiteSpace=wrap;collapsible=0;recursiveResize=0;expand=0;pointerEvents=0;" parent="OtLjK1SxLUBlRe3WaIa--7" vertex="1">
          <mxGeometry x="480" width="280" height="298" as="geometry">
            <mxRectangle width="280" height="298" as="alternateBounds" />
          </mxGeometry>
        </mxCell>
        <mxCell id="UWbwYJlnjAnOrRLH9oln-5" value="apagar endereço" style="rounded=1;whiteSpace=wrap;html=1;strokeWidth=1;fillColor=#dae8fc;strokeColor=#6c8ebf;" parent="OtLjK1SxLUBlRe3WaIa--10" vertex="1">
          <mxGeometry x="138" y="14" width="120" height="60" as="geometry" />
        </mxCell>
        <mxCell id="OtLjK1SxLUBlRe3WaIa--37" value="Atualizar endereço de entrega" style="rounded=1;whiteSpace=wrap;html=1;strokeWidth=1;fillColor=#dae8fc;strokeColor=#6c8ebf;" parent="OtLjK1SxLUBlRe3WaIa--10" vertex="1">
          <mxGeometry x="18" y="14" width="120" height="60" as="geometry" />
        </mxCell>
        <mxCell id="UWbwYJlnjAnOrRLH9oln-7" value="alterar telefone" style="rounded=1;whiteSpace=wrap;html=1;strokeWidth=1;fillColor=#dae8fc;strokeColor=#6c8ebf;" parent="OtLjK1SxLUBlRe3WaIa--10" vertex="1">
          <mxGeometry x="18" y="84" width="120" height="60" as="geometry" />
        </mxCell>
        <mxCell id="UWbwYJlnjAnOrRLH9oln-6" value="apagar telefone" style="rounded=1;whiteSpace=wrap;html=1;strokeWidth=1;fillColor=#dae8fc;strokeColor=#6c8ebf;" parent="OtLjK1SxLUBlRe3WaIa--10" vertex="1">
          <mxGeometry x="135.5" y="84" width="120" height="60" as="geometry" />
        </mxCell>
        <mxCell id="OtLjK1SxLUBlRe3WaIa--19" style="swimlane;connectable=0;startSize=0;html=1;whiteSpace=wrap;collapsible=0;recursiveResize=0;expand=0;pointerEvents=0;" parent="OtLjK1SxLUBlRe3WaIa--7" vertex="1">
          <mxGeometry x="760" width="270" height="298" as="geometry">
            <mxRectangle width="270" height="298" as="alternateBounds" />
          </mxGeometry>
        </mxCell>
        <mxCell id="UWbwYJlnjAnOrRLH9oln-4" value="Altera pagamentos" style="rounded=1;whiteSpace=wrap;html=1;strokeWidth=1;fillColor=#dae8fc;strokeColor=#6c8ebf;" parent="OtLjK1SxLUBlRe3WaIa--19" vertex="1">
          <mxGeometry x="12" y="14" width="120" height="60" as="geometry" />
        </mxCell>
        <mxCell id="UWbwYJlnjAnOrRLH9oln-16" value="apagar método de pagamento" style="rounded=1;whiteSpace=wrap;html=1;strokeWidth=1;fillColor=#dae8fc;strokeColor=#6c8ebf;" parent="OtLjK1SxLUBlRe3WaIa--19" vertex="1">
          <mxGeometry x="132" y="14" width="120" height="60" as="geometry" />
        </mxCell>
        <mxCell id="OtLjK1SxLUBlRe3WaIa--22" style="swimlane;connectable=0;startSize=0;html=1;whiteSpace=wrap;collapsible=0;recursiveResize=0;expand=0;pointerEvents=0;" parent="OtLjK1SxLUBlRe3WaIa--7" vertex="1">
          <mxGeometry x="1030" width="150" height="298" as="geometry">
            <mxRectangle width="150" height="298" as="alternateBounds" />
          </mxGeometry>
        </mxCell>
        <mxCell id="UWbwYJlnjAnOrRLH9oln-15" value="ver itens de produtos já comprados" style="rounded=1;whiteSpace=wrap;html=1;strokeWidth=1;fillColor=#dae8fc;strokeColor=#6c8ebf;" parent="OtLjK1SxLUBlRe3WaIa--22" vertex="1">
          <mxGeometry x="14" y="14" width="120" height="60" as="geometry" />
        </mxCell>
        <mxCell id="OtLjK1SxLUBlRe3WaIa--39" style="swimlane;connectable=0;startSize=0;html=1;whiteSpace=wrap;collapsible=0;recursiveResize=0;expand=0;pointerEvents=0;" parent="OtLjK1SxLUBlRe3WaIa--7" vertex="1">
          <mxGeometry x="1180" width="150" height="298" as="geometry">
            <mxRectangle width="150" height="298" as="alternateBounds" />
          </mxGeometry>
        </mxCell>
        <mxCell id="UWbwYJlnjAnOrRLH9oln-18" value="receber confirmação de alteração" style="rounded=1;whiteSpace=wrap;html=1;strokeWidth=1;fillColor=#dae8fc;strokeColor=#6c8ebf;" parent="OtLjK1SxLUBlRe3WaIa--39" vertex="1">
          <mxGeometry x="13" y="14" width="120" height="60" as="geometry" />
        </mxCell>
        <mxCell id="UWbwYJlnjAnOrRLH9oln-19" value="receber confirmação de deleção" style="rounded=1;whiteSpace=wrap;html=1;strokeWidth=1;fillColor=#dae8fc;strokeColor=#6c8ebf;" parent="OtLjK1SxLUBlRe3WaIa--39" vertex="1">
          <mxGeometry x="13" y="84" width="120" height="60" as="geometry" />
        </mxCell>
        <mxCell id="UWbwYJlnjAnOrRLH9oln-1" style="swimlane;connectable=0;startSize=0;html=1;whiteSpace=wrap;collapsible=0;recursiveResize=0;expand=0;pointerEvents=0;" parent="OtLjK1SxLUBlRe3WaIa--7" vertex="1">
          <mxGeometry x="1330" width="270" height="298" as="geometry">
            <mxRectangle width="270" height="298" as="alternateBounds" />
          </mxGeometry>
        </mxCell>
        <mxCell id="UWbwYJlnjAnOrRLH9oln-21" value="ler FAQs" style="rounded=1;whiteSpace=wrap;html=1;strokeWidth=1;fillColor=#dae8fc;strokeColor=#6c8ebf;" parent="UWbwYJlnjAnOrRLH9oln-1" vertex="1">
          <mxGeometry x="11" y="14" width="120" height="60" as="geometry" />
        </mxCell>
        <mxCell id="UWbwYJlnjAnOrRLH9oln-23" value="ler informações de privacidade e leis" style="rounded=1;whiteSpace=wrap;html=1;strokeWidth=1;fillColor=#dae8fc;strokeColor=#6c8ebf;" parent="UWbwYJlnjAnOrRLH9oln-1" vertex="1">
          <mxGeometry x="11" y="84" width="120" height="60" as="geometry" />
        </mxCell>
        <mxCell id="UWbwYJlnjAnOrRLH9oln-27" value="apredender como pedir e pagar" style="rounded=1;whiteSpace=wrap;html=1;strokeWidth=1;fillColor=#dae8fc;strokeColor=#6c8ebf;" parent="UWbwYJlnjAnOrRLH9oln-1" vertex="1">
          <mxGeometry x="11" y="154" width="120" height="60" as="geometry" />
        </mxCell>
        <mxCell id="UWbwYJlnjAnOrRLH9oln-26" value="descoberta de&amp;nbsp; novos protudos" style="rounded=1;whiteSpace=wrap;html=1;strokeWidth=1;fillColor=#dae8fc;strokeColor=#6c8ebf;" parent="UWbwYJlnjAnOrRLH9oln-1" vertex="1">
          <mxGeometry x="11" y="224" width="120" height="60" as="geometry" />
        </mxCell>
        <mxCell id="OtLjK1SxLUBlRe3WaIa--11" value="Sub-tarefas" style="swimlane;horizontal=0;points=[[0,0.5],[1,0.5]];portConstraint=eastwest;startSize=40;html=1;whiteSpace=wrap;collapsible=0;recursiveResize=0;expand=0;pointerEvents=0;fillColor=#e1d5e7;strokeColor=#9673a6;" parent="OtLjK1SxLUBlRe3WaIa--2" vertex="1">
          <mxGeometry y="634" width="1600" height="296" as="geometry" />
        </mxCell>
        <mxCell id="OtLjK1SxLUBlRe3WaIa--27" style="swimlane;connectable=0;startSize=0;html=1;whiteSpace=wrap;collapsible=0;recursiveResize=0;expand=0;pointerEvents=0;" parent="OtLjK1SxLUBlRe3WaIa--11" vertex="1">
          <mxGeometry x="40" width="170" height="296" as="geometry">
            <mxRectangle width="170" height="296" as="alternateBounds" />
          </mxGeometry>
        </mxCell>
        <mxCell id="UWbwYJlnjAnOrRLH9oln-12" value="receber link por e-mail" style="rounded=1;whiteSpace=wrap;html=1;strokeWidth=1;fillColor=#e1d5e7;strokeColor=#9673a6;" parent="OtLjK1SxLUBlRe3WaIa--27" vertex="1">
          <mxGeometry x="20" y="16" width="120" height="60" as="geometry" />
        </mxCell>
        <mxCell id="OtLjK1SxLUBlRe3WaIa--12" value="" style="swimlane;connectable=0;startSize=0;html=1;whiteSpace=wrap;collapsible=0;recursiveResize=0;expand=0;pointerEvents=0;" parent="OtLjK1SxLUBlRe3WaIa--11" vertex="1">
          <mxGeometry x="210" width="270" height="296" as="geometry">
            <mxRectangle width="270" height="296" as="alternateBounds" />
          </mxGeometry>
        </mxCell>
        <mxCell id="OtLjK1SxLUBlRe3WaIa--42" value="validar senha segura" style="rounded=1;whiteSpace=wrap;html=1;strokeWidth=1;fillColor=#e1d5e7;strokeColor=#9673a6;" parent="OtLjK1SxLUBlRe3WaIa--12" vertex="1">
          <mxGeometry x="14" y="16" width="120" height="60" as="geometry" />
        </mxCell>
        <mxCell id="OtLjK1SxLUBlRe3WaIa--14" value="" style="swimlane;connectable=0;startSize=0;html=1;whiteSpace=wrap;collapsible=0;recursiveResize=0;expand=0;pointerEvents=0;" parent="OtLjK1SxLUBlRe3WaIa--11" vertex="1">
          <mxGeometry x="480" width="280" height="296" as="geometry">
            <mxRectangle width="280" height="296" as="alternateBounds" />
          </mxGeometry>
        </mxCell>
        <mxCell id="OtLjK1SxLUBlRe3WaIa--20" style="swimlane;connectable=0;startSize=0;html=1;whiteSpace=wrap;collapsible=0;recursiveResize=0;expand=0;pointerEvents=0;" parent="OtLjK1SxLUBlRe3WaIa--11" vertex="1">
          <mxGeometry x="760" width="270" height="296" as="geometry">
            <mxRectangle width="270" height="296" as="alternateBounds" />
          </mxGeometry>
        </mxCell>
        <mxCell id="OtLjK1SxLUBlRe3WaIa--23" style="swimlane;connectable=0;startSize=0;html=1;whiteSpace=wrap;collapsible=0;recursiveResize=0;expand=0;pointerEvents=0;" parent="OtLjK1SxLUBlRe3WaIa--11" vertex="1">
          <mxGeometry x="1030" width="150" height="296" as="geometry">
            <mxRectangle width="150" height="296" as="alternateBounds" />
          </mxGeometry>
        </mxCell>
        <mxCell id="UWbwYJlnjAnOrRLH9oln-31" value="deixar um comentário" style="rounded=1;whiteSpace=wrap;html=1;strokeWidth=1;fillColor=#e1d5e7;strokeColor=#9673a6;" parent="OtLjK1SxLUBlRe3WaIa--23" vertex="1">
          <mxGeometry x="10" y="16" width="120" height="60" as="geometry" />
        </mxCell>
        <mxCell id="OtLjK1SxLUBlRe3WaIa--40" style="swimlane;connectable=0;startSize=0;html=1;whiteSpace=wrap;collapsible=0;recursiveResize=0;expand=0;pointerEvents=0;" parent="OtLjK1SxLUBlRe3WaIa--11" vertex="1">
          <mxGeometry x="1180" width="150" height="296" as="geometry">
            <mxRectangle width="150" height="296" as="alternateBounds" />
          </mxGeometry>
        </mxCell>
        <mxCell id="UWbwYJlnjAnOrRLH9oln-2" style="swimlane;connectable=0;startSize=0;html=1;whiteSpace=wrap;collapsible=0;recursiveResize=0;expand=0;pointerEvents=0;" parent="OtLjK1SxLUBlRe3WaIa--11" vertex="1">
          <mxGeometry x="1330" width="270" height="296" as="geometry">
            <mxRectangle width="270" height="296" as="alternateBounds" />
          </mxGeometry>
        </mxCell>
        <mxCell id="UWbwYJlnjAnOrRLH9oln-29" value="ler comentários de produto" style="rounded=1;whiteSpace=wrap;html=1;strokeWidth=1;fillColor=#e1d5e7;strokeColor=#9673a6;" parent="UWbwYJlnjAnOrRLH9oln-2" vertex="1">
          <mxGeometry x="11" y="16" width="120" height="60" as="geometry" />
        </mxCell>
        <mxCell id="UWbwYJlnjAnOrRLH9oln-30" value="se comunicar com outros consumidores" style="rounded=1;whiteSpace=wrap;html=1;strokeWidth=1;fillColor=#e1d5e7;strokeColor=#9673a6;" parent="UWbwYJlnjAnOrRLH9oln-2" vertex="1">
          <mxGeometry x="11" y="86" width="120" height="60" as="geometry" />
        </mxCell>
        <mxCell id="UWbwYJlnjAnOrRLH9oln-10" style="edgeStyle=orthogonalEdgeStyle;rounded=0;orthogonalLoop=1;jettySize=auto;html=1;dashed=1;dashPattern=1 4;fontSize=12;fontColor=#000000;" parent="OtLjK1SxLUBlRe3WaIa--2" source="OtLjK1SxLUBlRe3WaIa--41" target="UWbwYJlnjAnOrRLH9oln-3" edge="1">
          <mxGeometry relative="1" as="geometry">
            <Array as="points">
              <mxPoint x="505" y="320" />
              <mxPoint x="901" y="320" />
            </Array>
          </mxGeometry>
        </mxCell>
      </root>
    </mxGraphModel>
  </diagram>
</mxfile>
